# AST/ASF file generated using VICON BodyLanguage
# -----------------------------------------------
:version 1.10
:name VICON
:units
  mass 1.0
  length 0.45
  angle deg
:documentation
   .ast/.asf automatically generated from VICON data using
   VICON BodyBuilder and BodyLanguage model FoxedUp or BRILLIANT.MOD
:root
   order TX TY TZ RX RY RZ
   axis XYZ
   position 0 0 0  
   orientation 0 0 0 
:bonedata
  begin
     id 1 
     name lhipjoint
     direction 0.541323 -0.757556 0.364798 
     length 2.47576 
     axis 0 0 0  XYZ
  end
  begin
     id 2 
     name lfemur
     direction 0.34202 -0.939693 0  
     length 7.46493  
     axis 0 0 20  XYZ
    dof rx ry rz
    limits (-160.0 20.0)
           (-70.0 70.0)
           (-60.0 70.0)
  end
  begin
     id 3 
     name ltibia
     direction 0.34202 -0.939693 0   
     length 7.73805   
     axis 0 0 20   XYZ
    dof rx
    limits (-10.0 170.0)
  end
  begin
     id 4 
     name lfoot
     direction 0.107174 -0.294458 0.949636   
     length 2.25864   
     axis -90 7.62852e-016 20   XYZ
    dof rx rz
    limits (-45.0 90.0)
           (-70.0 20.0)
  end
  begin
     id 5 
     name ltoes
     direction 1.53606e-011 -4.21934e-011 1   
     length 1.12451   
     axis -90 7.62852e-016 20   XYZ
    dof rx
    limits (-90.0 20.0)
  end
  begin
     id 6 
     name rhipjoint
     direction -0.524745 -0.766967 0.36933   
     length 2.44538  
     axis 0 0 0  XYZ 
  end
  begin
     id 7 
     name rfemur
     direction -0.34202 -0.939693 0   
     length 7.61604   
     axis 0 0 -20   XYZ
    dof rx ry rz
    limits (-160.0 20.0)
           (-70.0 70.0)
           (-70.0 60.0)
  end
  begin
     id 8 
     name rtibia
     direction -0.34202 -0.939693 0   
     length 7.61056   
     axis 0 0 -20   XYZ
    dof rx
    limits (-10.0 170.0)
 end
 begin
     id 9 
     name rfoot
     direction -0.12616 -0.346623 0.929482   
     length 2.46372  
     axis -90 -7.62852e-016 -20   XYZ
    dof rx rz
    limits (-45.0 90.0)
           (-20.0 70.0)
  end
  begin
     id 10 
     name rtoes
     direction -1.53531e-011 -4.22004e-011 1   
     length 1.21611   
     axis -90 -7.62852e-016 -20   XYZ
    dof rx
    limits (-90.0 20.0)
  end
  begin
     id 11 
     name lowerback
     direction -0.000778023 0.997293 -0.0735223   
     length 2.06139   
     axis 0 0 0   XYZ
    dof rx ry rz
    limits (-20.0 45.0)
           (-30.0 30.0)
           (-30.0 30.0)
  end
  begin
     id 12 
     name upperback
     direction 0.0222598 0.999722 -0.0078355   
     length 2.06383   
     axis 0 0 0   XYZ
    dof rx ry rz
    limits (-20.0 45.0)
           (-30.0 30.0)
           (-30.0 30.0)
  end
  begin
     id 13 
     name thorax
     direction 0.0219654 0.999405 0.0265994   
     length 2.07163   
     axis 0 0 0   XYZ
    dof rx ry rz
    limits (-20.0 45.0)
           (-30.0 30.0)
           (-30.0 30.0)
  end
  begin
     id 14 
     name lowerneck
     direction 0.0213282 0.988147 0.15202   
     length 1.75969   
     axis 0 0 0   XYZ
    dof rx ry rz
    limits (-20.0 45.0)
           (-30.0 30.0)
           (-30.0 30.0)
  end
  begin
     id 15 
     name upperneck
     direction -0.0546456 0.982624 -0.177379   
     length 1.79244   
     axis 0 0 0   XYZ
    dof rx ry rz
    limits (-20.0 45.0)
           (-30.0 30.0)
           (-30.0 30.0)
  end
  begin
     id 16
     name head
     direction -0.0199987 0.996855 -0.076686  
     length 1.80555  
     axis 0 0 0   XYZ
    dof rx ry rz
    limits (-20.0 45.0)
           (-30.0 30.0)
           (-30.0 30.0)
  end
  begin
     id 17 
     name lclavicle
     direction 0.929565 0.363219 -0.063096  
     length 3.55722  
     axis 0 0 0   XYZ
    dof ry rz
    limits (-20.0 10.0)
           (0.0 20.0)
  end
  begin
     id 18 
     name lhumerus
     direction 1 -4.48993e-011 -2.36203e-027   
     length 4.92785   
     axis 180 -30 -90   XYZ
    dof rx ry rz
    limits (-60.0 90.0)
           (-90.0 90.0)
           (-90.0 90.0)
  end
  begin
     id 19
     name lradius
     direction 1 -4.48947e-011 2.02997e-027   
     length 3.44052   
     axis 180 -30 -90   XYZ
    dof rx
    limits (-10.0 170.0)
  end
  begin
     id 20
     name lwrist
     direction 1 -4.48962e-011 1.45991e-027   
     length 1.72026   
     axis 1.49639e-024 90 90   XYZ
    dof ry
    limits (-180.0 0.0)
 end
  begin
     id 21 
     name lhand
     direction 1 -4.48984e-011 2.91906e-027   
     length 0.654326   
     axis -1.863e-015 90 90   XYZ
    dof rx rz
    limits (-90.0 90.0)
           (-45.0 45.0)
  end
  begin
     id 22 
     name lfingers
     direction 1 -4.48961e-011 5.83968e-027   
     length 0.527534   
     axis -3.72598e-015 90 90   XYZ
    dof rx
    limits (0.0 90.0)
  end
  begin
     id 23
     name lthumb
     direction 0.707107 -6.34963e-011 0.707107   
     length 0.757437   
     axis -90 45 -6.68868e-015   XYZ
    dof rx rz
    limits (-45.0 45.0)
           (-45.0 45.0)
  end
  begin
     id 24 
     name rclavicle
     direction -0.902944 0.422599 -0.0781198   
     length 3.54432  
     axis 0 0 0   XYZ 
    dof ry rz
    limits (-10.0 20.0)
           (-20.0 0.0)
  end
  begin
     id 25 
     name rhumerus
     direction -1 -4.48953e-011 -4.75835e-028  
     length 5.09181   
     axis 180 30 90   XYZ
    dof rx ry rz
    limits (-90.0 60.0)
           (-90.0 90.0)
           (-90.0 90.0)
  end
  begin
     id 26 
     name rradius
     direction -1 -4.48986e-011 -3.25889e-027   
     length 3.49865   
     axis 180 30 90   XYZ
    dof rx
    limits (-10.0 170.0)
  end
  begin
     id 27 
     name rwrist
     direction -1 -4.48963e-011 1.45989e-027   
     length 1.74933   
     axis 1.49639e-024 -90 -90   XYZ
    dof ry
    limits (-180.0 0.0)
  end
  begin
     id 28
     name rhand
     direction -1 -4.49003e-011 2.91844e-027   
     length 0.66641   
     axis -1.863e-015 -90 -90   XYZ
    dof rx rz
    limits (-90.0 90.0)
           (-45.0 45.0)
  end
  begin
     id 29
     name rfingers
     direction -1 -4.48973e-011 5.83886e-027   
     length 0.537277   
     axis -3.72598e-015 -90 -90   XYZ
    dof rx
    limits (0.0 90.0)
  end
  begin
     id 30
     name rthumb
     direction -0.707107 -6.34976e-011 0.707107   
     length 0.771425   
     axis -90 -45 6.68868e-015   XYZ
    dof rx rz
    limits (-45.0 45.0)
           (-45.0 45.0)
  end
:hierarchy
  begin
    root lhipjoint rhipjoint lowerback
    lhipjoint lfemur
    lfemur ltibia
    ltibia lfoot
    lfoot ltoes
    rhipjoint rfemur
    rfemur rtibia
    rtibia rfoot
    rfoot rtoes
    lowerback upperback
    upperback thorax
    thorax lowerneck lclavicle rclavicle
    lowerneck upperneck
    upperneck head
    lclavicle lhumerus
    lhumerus lradius
    lradius lwrist
    lwrist lhand lthumb
    lhand lfingers
    rclavicle rhumerus
    rhumerus rradius
    rradius rwrist
    rwrist rhand rthumb
    rhand rfingers
  end

#!OML:ASF H:\LiuWeirdWalks\Patient Classification 1\Patient 1\Session 1\male.ASF
:FULLY-SPECIFIED
:DEGREES
87
root 1.52255 17.8842 -28.9577 9.33291 -2.23608 -7.80013
lowerback 7.70216 -0.188209 -2.39478
upperback -0.658146 -0.292082 3.69604
thorax -4.98511 -0.0284281 5.25816
lowerneck -20.8204 -0.537206 5.13431
upperneck 27.4437 -1.40665 -3.8842
head 12.4966 -0.618349 -2.59491
rclavicle 5.01931e-015 -1.41137e-014
rhumerus -39.7424 -5.5812 -75.4809
rradius 39.7645
rwrist -7.67602
rhand -14.7093 -6.12566
rfingers 7.12502
rthumb 11.4451 -35.7933
lclavicle 5.01931e-015 -1.41137e-014
lhumerus -31.517 6.73061 77.9111
lradius 29.7997
lwrist 3.26401
lhand -13.2551 -3.96029
lfingers 7.12502
lthumb 12.8473 25.6243
rfemur -6.26892 -6.95738 17.7892
rtibia 70.5674
rfoot 12.4059 -9.26041
rtoes -0.523458
lfemur -19.1355 5.78647 -18.5239
ltibia 32.1108
lfoot -17.3072 10.1611
ltoes -6.34718
88
root 1.52436 17.8825 -28.957 9.29696 -2.15215 -7.72657
lowerback 7.78486 -0.205536 -2.40395
upperback -0.622586 -0.318034 3.68057
thorax -4.99174 -0.0417454 5.25095
lowerneck -20.8251 -0.516247 5.09326
upperneck 27.4571 -1.35988 -3.89036
head 12.5059 -0.602555 -2.58316
rclavicle 4.96962e-016 3.97569e-015
rhumerus -39.7024 -5.59234 -75.473
rradius 39.7157
rwrist -7.66995
rhand -14.7212 -6.13676
rfingers 7.12502
rthumb 11.4337 -35.805
lclavicle 4.96962e-016 3.97569e-015
lhumerus -31.5088 6.67128 77.9832
lradius 29.9501
lwrist 3.38404
lhand -13.3231 -3.93445
lfingers 7.12502
lthumb 12.7817 25.6543
rfemur -6.41345 -7.02979 17.7235
rtibia 70.7893
rfoot 12.416 -9.2173
rtoes -0.414931
lfemur -19.0967 5.69395 -18.61
ltibia 32.0897
lfoot -17.301 10.197
ltoes -6.23026
89
root 1.52737 17.8804 -28.9558 9.26323 -2.04959 -7.66523
lowerback 7.86973 -0.22418 -2.38158
upperback -0.585824 -0.342645 3.66793
thorax -4.99859 -0.0552277 5.22856
lowerneck -20.8543 -0.506006 5.03633
upperneck 27.4808 -1.33024 -3.87681
head 12.5236 -0.593229 -2.56458
rclavicle 3.27001e-014 -6.34123e-014
rhumerus -39.6733 -5.61891 -75.4528
rradius 39.6833
rwrist -7.67215
rhand -14.7252 -6.15216
rfingers 7.12502
rthumb 11.4297 -35.8206
lclavicle 3.27001e-014 -6.34123e-014
lhumerus -31.4857 6.60088 78.0641
lradius 30.0957
lwrist 3.49657
lhand -13.3831 -3.92019
lfingers 7.12502
lthumb 12.7239 25.6721
rfemur -6.55442 -7.11094 17.6728
rtibia 70.9939
rfoot 12.4407 -9.16468
rtoes -0.331756
lfemur -19.0547 5.54411 -18.6916
ltibia 32.0732
lfoot -17.2923 10.3033
ltoes -6.10504
90
root 1.53121 17.8784 -28.9543 9.23968 -1.93378 -7.61699
lowerback 7.95557 -0.241555 -2.33655
upperback -0.558828 -0.362828 3.66223
thorax -5.01681 -0.0665866 5.20031
lowerneck -20.8601 -0.518566 4.94559
upperneck 27.506 -1.32814 -3.83737
head 12.5362 -0.596049 -2.53442
rclavicle -1.1281e-014 2.74323e-014
rhumerus -39.6763 -5.63868 -75.42
rradius 39.6809
rwrist -7.69964
rhand -14.7266 -6.18572
rfingers 7.12502
rthumb 11.4284 -35.8542
lclavicle -1.1281e-014 2.74323e-014
lhumerus -31.4675 6.52052 78.1568
lradius 30.2424
lwrist 3.59051
lhand -13.4343 -3.91883
lfingers 7.12502
lthumb 12.6746 25.6766
rfemur -6.70227 -7.20149 17.6387
rtibia 71.1814
rfoot 12.4863 -9.09273
rtoes -0.199416
lfemur -19.0241 5.34206 -18.7647
ltibia 32.0591
lfoot -17.2734 10.4693
ltoes -5.9627
91
root 1.53543 17.8765 -28.9528 9.22802 -1.81758 -7.58213
lowerback 8.0286 -0.25759 -2.2786
upperback -0.525751 -0.379379 3.66756
thorax -5.02184 -0.0767394 5.1756
lowerneck -20.9172 -0.517077 4.87734
upperneck 27.5485 -1.30813 -3.8242
head 12.5666 -0.592044 -2.51653
rclavicle 4.96962e-015 1.94809e-014
rhumerus -39.6716 -5.64585 -75.3794
rradius 39.694
rwrist -7.74108
rhand -14.7293 -6.23273
rfingers 7.12502
rthumb 11.4258 -35.9014
lclavicle 4.96962e-015 1.94809e-014
lhumerus -31.4243 6.45368 78.2606
lradius 30.3776
lwrist 3.66831
lhand -13.4687 -3.93828
lfingers 7.12502
lthumb 12.6414 25.6592
rfemur -6.85905 -7.2879 17.6223
rtibia 71.3546
rfoot 12.5504 -9.01863
rtoes 0.0373626
lfemur -19.0052 5.10924 -18.8297
ltibia 32.0468
lfoot -17.2405 10.691
ltoes -5.83517
